PathFileType	4	(X/Y/Z)	Patient4_TMGait_0pt3_02_left_09.trc.trc
DataRate	CameraRate	NumFrames	NumMarkers	Units	OrigDataRate	OrigDataStartFrame	OrigNumFrames
51.094890510949	51.094890510949	4	33	mm	51.094890510949	1	       141
Frame#	Time	Sacral			L.Shoulder			Chest			R.Shoulder			Neck			R.ASIS			L.ASIS			R.Thigh.Superior			R.Thigh.Lateral			R.Thigh.Inferior			R.Patella			L.Thigh.Superior			L.Thigh.Lateral			L.Thigh.Inferior			L.Patella			L.Shank.Superior			L.Shank.Lateral			L.Shank.Inferior			R.Shank.Superior			R.Shank.Lateral			R.Shank.Inferior			R.Heel			R.Midfoot.Superior			R.Midfoot.Lateral			R.Toe			L.Heel			L.Midfoot.Lateral			L.Midfoot.Superior			L.Toe			L.Elbow			L.Wrist			R.Elbow			R.Wrist			
		X1	Y1	Z1	X2	Y2	Z2	X3	Y3	Z3	X4	Y4	Z4	X5	Y5	Z5	X6	Y6	Z6	X7	Y7	Z7	X8	Y8	Z8	X9	Y9	Z9	X10	Y10	Z10	X11	Y11	Z11	X12	Y12	Z12	X13	Y13	Z13	X14	Y14	Z14	X15	Y15	Z15	X16	Y16	Z16	X17	Y17	Z17	X18	Y18	Z18	X19	Y19	Z19	X20	Y20	Z20	X21	Y21	Z21	X22	Y22	Z22	X23	Y23	Z23	X24	Y24	Z24	X25	Y25	Z25	X26	Y26	Z26	X27	Y27	Z27	X28	Y28	Z28	X29	Y29	Z29	X30	Y30	Z30	X31	Y31	Z31	X32	Y32	Z32	X33	Y33	Z33	

1	17.460000000000	718.651767579305	1007.220654793978	532.263625913886	927.280138696043	1435.129178355111	370.988489072523	1007.296082948044	1360.103149185906	541.809088459509	906.824785265518	1432.009021403674	706.551006008841	894.904744372312	1494.955042825174	524.653917316507	942.234790611460	939.427820654623	662.938878924857	941.949794356097	960.733211223937	389.617954561909	983.395035043073	737.577199436333	626.072052507196	895.903843937845	626.419943875364	673.392607789054	975.744829195919	576.708112389817	594.000979874114	974.135221217975	486.904611589478	594.690806148241	1004.949392607641	758.598301663703	421.315836524830	945.233134477551	635.083379944922	345.664726637087	1033.165935217828	560.366460273631	416.847911368157	1032.051570056244	470.925803399119	409.195569608773	959.945762286591	414.032087449738	394.269955166903	819.051685576271	384.602250114393	335.998689161311	793.071566457260	254.572587317666	384.311790355657	938.977488357214	399.690013815256	596.598084070368	859.390624852054	298.411185636688	651.469548812658	897.034113617681	204.058236365160	585.344049071198	753.903945886765	43.830263048991	545.585775719994	924.818870684123	96.782105071873	589.611310201547	833.928929868113	37.399690690870	624.004258895654	1042.561400353019	41.478907749681	623.730921599562	598.511564818326	214.516217866508	414.015122625949	649.771750394739	161.381108925686	333.401744207953	754.713009176998	150.245915950218	356.568242428259	812.843539095905	27.877941385571	326.211924934701	955.884184653205	1084.472923213572	247.953994804908	1129.603697922602	886.802384149591	259.081555129655	825.460655283812	1095.398415544863	832.169287504329	879.792225266476	841.582755058431	879.913681977469	
2	17.479571428571	716.816533606088	1005.748990454312	536.368438694262	924.334754597639	1432.452834218149	370.915618025372	1006.370061375250	1358.367088467618	541.079501987585	908.259447856548	1431.192576445199	706.735999684272	894.239171598249	1493.333318188337	524.600332075614	941.733545565762	938.154827938011	664.967258396933	939.043537816644	959.371121524794	391.630811600184	983.323691208109	736.400890372141	627.464417511329	896.506306966862	624.722509726576	674.668020522793	976.009130268846	575.517550018894	594.602440789124	974.548738239600	485.008136934789	594.960714563366	1006.308192675460	761.466326435954	425.878577665833	951.601138248045	636.777504193124	349.848558135461	1040.407104004227	564.501252690804	422.577217979053	1041.793443789477	474.545926128632	414.607458816787	969.980984653067	416.522265200826	398.714850484693	828.983183162792	386.910096014406	340.133689617528	803.724845153333	256.237701529155	387.477932196392	937.796805414021	398.028817177103	596.761851629693	857.264316844137	297.610740712197	651.859060261262	892.975292747163	203.070006749412	585.215340872657	747.889779718463	43.852976830671	545.683809330602	918.875175407518	96.724094817083	589.657851859256	827.900443438539	37.377406469716	624.054249811026	1036.567429927805	41.318760905609	623.749790201068	608.873341263220	213.344951918192	416.117638071352	661.423387598748	161.985020009019	335.372626298788	766.444316403507	152.711187911833	359.060096407779	827.051055604414	31.652259955145	327.910474451010	944.092622676768	1079.785453227687	252.192449501977	1097.668658325114	870.415467099979	261.456750164344	836.020942837095	1093.063924010295	834.728870114226	906.586507182936	844.355492291994	880.546219741039	
3	17.499142857143	714.927122268667	1004.237458689868	540.487810741627	921.331027397633	1429.667424704795	370.810414857790	1005.423258277328	1356.560519072477	540.304469805696	909.712124245534	1430.350456334898	706.880384549499	893.555547974962	1491.642035210001	524.494578955604	941.184273598481	936.815154671984	667.024248617359	936.063437334623	957.947797501627	393.643537528125	983.203912487162	735.179524220835	628.856009200723	897.067641428282	622.972318242381	675.917983390371	976.263253526173	574.278250920892	595.204578510552	974.931382306254	483.047363882368	595.213984818729	1007.591434253868	764.339005783396	430.317966423028	957.810200184023	638.494445567461	353.943849176477	1047.570019678892	568.705995121539	428.094959057025	1051.506228554179	478.311747825272	419.817524472838	980.201433003879	419.024207724262	403.006851350371	839.160402023105	388.659728453036	344.231972363965	815.194202338669	257.258572932178	390.622017221223	936.567273014276	396.315522214020	596.910735239102	855.056642632456	296.790515639432	652.233506955045	888.805990106143	202.051848150937	585.078597282203	741.708554661836	43.891106162643	545.752123482490	912.760034537071	96.643389326351	589.677417910212	821.721764907651	37.358027457082	624.102779610851	1030.418649104104	41.149184037015	623.776944120327	620.319247193434	210.678903663259	418.361068445463	674.247630740520	161.426073645509	337.400966848630	779.338924667501	154.461408947018	361.546322944604	842.879052977959	35.108782081815	329.451468564614	931.821796110473	1075.082994937214	256.402807486065	1064.763317410030	854.420646744563	263.954152301501	847.012584739369	1090.706156059224	837.200645327776	934.638481506437	847.936742093062	880.722180163460	
4	17.518714285714	713.026124800024	1002.745905513371	544.492779988687	918.332298103524	1426.845426249244	370.661922932612	1004.480430570812	1354.731611455412	539.478529757832	911.162333314751	1429.518176725049	706.955703857139	892.870795065624	1489.926434289305	524.319365381018	940.581699232588	935.436421911332	669.036681595283	933.068803467931	956.500447038997	395.584181693056	982.995428717831	733.938166956476	630.193555981307	897.519497389972	621.216872767818	677.092426796791	976.452181122781	573.014226198919	595.786536554765	975.209571145357	481.068592597164	595.438306520199	1008.691218662724	767.111579024910	434.422317156515	963.531298698012	640.183085723348	357.751529175884	1054.310445355187	572.848145483552	433.103839578968	1060.784856738638	482.162681630865	424.544356163674	990.314302873217	421.470835266862	406.917465802000	849.403749805217	389.506399835909	348.095659338447	827.558510036432	257.321103928940	393.603568607212	935.266868049843	394.595913014277	597.037185826114	852.767707689217	295.976057789682	652.577608017579	884.582608028158	201.033546150521	584.939550237952	735.477012766736	43.948969191254	545.793175392076	906.579767278747	96.538837824823	589.666864947956	815.505647915273	37.344497044517	624.146800267099	1024.225033778090	40.971550385075	623.815396272931	633.137296411529	205.930315882565	420.687288737365	688.532642517486	159.185416677094	339.419584805786	793.647028611195	155.117113039369	363.924942817708	860.682461859780	38.010814705506	330.746313891469	919.204589867703	1070.575766614971	260.425660759436	1031.528203867584	839.585740417533	266.559226859902	858.346200287393	1088.440476101207	839.454183451714	963.628065175383	852.767139619671	880.179902317624	
